<svg xmlns="http://www.w3.org/2000/svg" width="30" height="30" viewBox="0 0 30 30"><g><g><g><path fill="#333" d="M0 2a2 2 0 0 1 2-2h26a2 2 0 0 1 2 2v26a2 2 0 0 1-2 2H2a2 2 0 0 1-2-2z"/></g><g><path fill="#fff" d="M23.803 9.616a7.539 7.539 0 0 1-1.722 1.842c.01.155.01.31.01.464 0 4.71-3.454 10.136-9.769 10.136a9.449 9.449 0 0 1-5.272-1.6c.276.033.542.045.83.045a6.72 6.72 0 0 0 4.262-1.523c-1.51-.033-2.775-1.058-3.21-2.47.212.033.425.055.648.055.308 0 .616-.044.903-.121-1.573-.331-2.753-1.765-2.753-3.497v-.044c.457.265.989.43 1.552.452a3.597 3.597 0 0 1-1.53-2.966c0-.662.17-1.269.467-1.798 1.69 2.162 4.231 3.573 7.08 3.728a4.166 4.166 0 0 1-.085-.817c0-1.963 1.53-3.562 3.433-3.562.989 0 1.882.43 2.509 1.125a6.612 6.612 0 0 0 2.179-.86 3.532 3.532 0 0 1-1.51 1.963 6.688 6.688 0 0 0 1.978-.552z"/></g></g></g></svg>